<svg width="80" height="96" viewBox="0 0 80 96" fill="none" xmlns="http://www.w3.org/2000/svg">
<path d="M78.9109 77.9649L61.4909 69.2549C61.2143 69.1175 60.9097 69.046 60.6009 69.046C60.292 69.046 59.9874 69.1175 59.7109 69.2549C53.9375 62.5547 52.25 49.3047 51.1409 43.2849L48.0009 22.4849C47.9055 21.6041 47.5779 20.7645 47.0515 20.052C46.5251 19.3395 45.8189 18.7796 45.005 18.4296C44.1912 18.0797 43.299 17.9522 42.4197 18.0603C41.5404 18.1684 40.7057 18.5082 40.0009 19.0449C39.0812 18.3605 37.9567 18.008 36.8109 18.0449C35.6048 18.1099 34.4605 18.5992 33.5803 19.4264C32.7001 20.2535 32.1407 21.3652 32.0009 22.5649L28.9009 43.2249C27.956 50.5613 25.2741 64.0054 20.3309 69.2149C20.0543 69.0775 19.7497 69.006 19.4409 69.006C19.132 69.006 18.8274 69.0775 18.5509 69.2149L1.09086 77.9649C0.753654 78.137 0.472218 78.4012 0.279265 78.727C0.0863132 79.0527 -0.0102301 79.4265 0.0008583 79.8049V93.3049C0.0008583 93.8353 0.211572 94.344 0.586645 94.7191C0.961718 95.0942 1.47043 95.3049 2.00086 95.3049H28.8909C29.2433 95.3063 29.5898 95.2145 29.8954 95.0389C30.2009 94.8633 30.4547 94.6101 30.6309 94.3049L35.6309 85.5949C35.8249 85.2569 35.916 84.8696 35.8929 84.4805C35.8698 84.0914 35.7336 83.7176 35.5009 83.4049C35.6365 83.2541 35.7801 83.1105 35.9309 82.9749C37.4318 82.6616 38.8165 81.9381 39.9309 80.8849C41.0452 81.9381 42.4299 82.6616 43.9309 82.9749C44.0817 83.1105 44.2252 83.2541 44.3609 83.4049C44.1282 83.7176 43.9919 84.0914 43.9688 84.4805C43.9457 84.8696 44.0368 85.2569 44.2309 85.5949L49.2309 94.3049C49.4071 94.6101 49.6608 94.8633 49.9664 95.0389C50.2719 95.2145 50.6184 95.3063 50.9709 95.3049H78.0009C78.5313 95.3049 79.04 95.0942 79.4151 94.7191C79.7901 94.344 80.0009 93.8353 80.0009 93.3049V79.8049C80.0119 79.4265 79.9154 79.0527 79.7225 78.727C79.5295 78.4012 79.2481 78.137 78.9109 77.9649ZM27.7409 91.3049H4.00086V80.9849L16.9309 74.5249C16.996 76.428 17.485 78.2925 18.362 79.9827C19.2391 81.6729 20.4823 83.146 22.0009 84.2949C24.277 86.1449 27.0735 87.2391 30.0009 87.4249L27.7409 91.3049ZM38.0009 76.9449C38.0009 77.6449 36.1809 78.9449 35.4709 79.0149C33.8009 79.0149 31.6709 81.4549 30.6309 83.4249C28.3898 83.3917 26.2272 82.5944 24.5009 81.1649C23.3886 80.3234 22.4871 79.235 21.8676 77.9855C21.248 76.736 20.9274 75.3596 20.9309 73.9649C28.6605 68.4992 31.4461 52.9993 32.8609 43.8049L35.8609 23.1949C35.9609 22.6649 36.2209 22.0249 36.8609 22.0049C37.0904 22.0054 37.3149 22.0728 37.5067 22.1989C37.6985 22.325 37.8494 22.5043 37.9409 22.7149L38.0009 76.9449ZM42.0009 76.9449V22.7449C42.0901 22.5328 42.2405 22.352 42.4328 22.2255C42.6251 22.0991 42.8507 22.0327 43.0809 22.0349C43.7509 22.0349 44.0109 22.6949 44.0809 23.1449L47.1409 43.8549C48.4945 53.0895 51.3589 68.5311 59.0209 73.9749C59.0244 75.3696 58.7037 76.746 58.0841 77.9955C57.4646 79.245 56.5631 80.3334 55.4509 81.1749C53.7276 82.603 51.5687 83.4002 49.3309 83.4349C48.3309 81.4349 46.1709 79.0249 44.5509 79.0249C43.8209 78.9049 42.0009 77.6449 42.0009 76.9449ZM76.0009 91.3049H52.2609L50.0009 87.4249C52.9282 87.2391 55.7247 86.1449 58.0009 84.2949C59.5213 83.1471 60.7663 81.6743 61.6452 79.9841C62.524 78.2939 63.0145 76.4288 63.0809 74.5249L76.0009 80.9849V91.3049Z" fill="#4393DE"/>
<path d="M40.0002 0.304688C39.3795 0.304688 38.7844 0.551223 38.3455 0.990058C37.9067 1.42889 37.6602 2.02408 37.6602 2.64469V7.26469C37.6602 7.88529 37.9067 8.48048 38.3455 8.91932C38.7844 9.35815 39.3795 9.60469 40.0002 9.60469C40.6208 9.60469 41.216 9.35815 41.6548 8.91932C42.0936 8.48048 42.3402 7.88529 42.3402 7.26469V2.64469C42.3402 2.02408 42.0936 1.42889 41.6548 0.990058C41.216 0.551223 40.6208 0.304688 40.0002 0.304688Z" fill="white"/>
<path d="M29.3393 7.14445C28.8919 6.7218 28.2997 6.48633 27.6843 6.48633C27.0688 6.48633 26.4767 6.7218 26.0293 7.14445C25.5927 7.58461 25.3477 8.17947 25.3477 8.79945C25.3477 9.41943 25.5927 10.0143 26.0293 10.4545L29.1093 13.5345C29.5494 13.9711 30.1443 14.2161 30.7643 14.2161C31.3843 14.2161 31.9791 13.9711 32.4193 13.5345C32.6379 13.3178 32.8114 13.06 32.9298 12.776C33.0482 12.4919 33.1092 12.1872 33.1092 11.8795C33.1092 11.5717 33.0482 11.267 32.9298 10.9829C32.8114 10.6989 32.6379 10.4411 32.4193 10.2245L29.3393 7.14445Z" fill="white"/>
<path d="M54.0007 7.14445C53.5533 6.7218 52.9611 6.48633 52.3457 6.48633C51.7302 6.48633 51.1381 6.7218 50.6907 7.14445L47.6107 10.2245C47.2819 10.5511 47.0575 10.9681 46.966 11.4225C46.8745 11.8769 46.92 12.3483 47.0967 12.7768C47.2735 13.2053 47.5735 13.5716 47.9588 13.8293C48.344 14.0871 48.7972 14.2246 49.2607 14.2245C49.8817 14.224 50.4778 13.9799 50.9207 13.5445L54.0007 10.4545C54.4373 10.0143 54.6823 9.41943 54.6823 8.79945C54.6823 8.17947 54.4373 7.58461 54.0007 7.14445Z" fill="white"/>
</svg>
